<svg id="Layer_1" data-name="Layer 1" xmlns="http://www.w3.org/2000/svg" viewBox="0 0 133.71 91.03"><defs><style>.cls-1{fill:#ef9400;}.cls-2{fill:#fff;}</style></defs><title>Untitled-1</title><rect class="cls-1" x="11.36" y="25.5" width="34.57" height="34.57"/><path class="cls-2" d="M28.74,45.09H39.79L37.31,57.46h-5l-.81-2.73H31.3a10.48,10.48,0,0,1-2.63,2.17,7.64,7.64,0,0,1-3.94.9,10.74,10.74,0,0,1-3.61-.62,8.3,8.3,0,0,1-3.07-2A9.77,9.77,0,0,1,15.9,51.7a15.09,15.09,0,0,1-.81-5.25,19.37,19.37,0,0,1,1-6.31,15.2,15.2,0,0,1,3.07-5.27,14.44,14.44,0,0,1,5.12-3.6,17.88,17.88,0,0,1,7.17-1.33,18.46,18.46,0,0,1,5.5.73,44.45,44.45,0,0,1,4.44,1.62l-1.62,8.27H32.58c0-.31.07-.68.13-1.1s.09-.88.12-1.35l.09-1.38c0-.46,0-.86,0-1.2a7.86,7.86,0,0,0,0-.79,3.25,3.25,0,0,0-.21-.87,1.77,1.77,0,0,0-.52-.71,1.53,1.53,0,0,0-1-.27,2.79,2.79,0,0,0-2,.91,8.89,8.89,0,0,0-1.65,2.44,20.38,20.38,0,0,0-1.25,3.43q-.54,1.92-.9,3.9c-.24,1.32-.43,2.62-.56,3.88s-.19,2.37-.19,3.31c0,.28,0,.64.05,1.07A4.24,4.24,0,0,0,25,53.08a3,3,0,0,0,.69,1.07,1.74,1.74,0,0,0,1.3.45,3.7,3.7,0,0,0,2.73-1.54,11.12,11.12,0,0,0,2-5.12H28.1Z"/><path d="M58.26,56.53a2,2,0,0,1-.84,1.64,3.55,3.55,0,0,1-2.25.67,3.14,3.14,0,0,1-2.51-1.06,5.78,5.78,0,0,1-1-3.43A8.05,8.05,0,0,1,49,57.61a6.39,6.39,0,0,1-3.88,1.23,4.75,4.75,0,0,1-3.19-1,3.66,3.66,0,0,1-1.2-2.92,4.35,4.35,0,0,1,1.64-3.51,11.27,11.27,0,0,1,4.15-2.11,19.23,19.23,0,0,1,4.79-.67v-.84a9.82,9.82,0,0,0-.67-4.19,2.37,2.37,0,0,0-2.31-1.34,2.24,2.24,0,0,0-2.41,2.51,2.63,2.63,0,0,0,1.2,2.48,2.29,2.29,0,0,1-1,.57,4.16,4.16,0,0,1-1.33.2,3.31,3.31,0,0,1-2.42-.87,2.92,2.92,0,0,1-.89-2.21,3.35,3.35,0,0,1,1.91-3.06,10.43,10.43,0,0,1,5.19-1.09q3.72,0,5.44,1.71T55.78,48v5.83c0,1.18.37,1.77,1.1,1.77a1.18,1.18,0,0,0,.5-.12,1,1,0,0,0,.44-.35A2.41,2.41,0,0,1,58.26,56.53Zm-9.15-1.31A6.27,6.27,0,0,0,50.79,53a6.94,6.94,0,0,0,.67-3,8.31,8.31,0,0,0-4,.74A3.94,3.94,0,0,0,46,52a3.18,3.18,0,0,0-.55,1.85,2.75,2.75,0,0,0,.42,1.54,1.41,1.41,0,0,0,1.25.63A3.21,3.21,0,0,0,49.11,55.22Z"/><path d="M60.54,64.58a3.1,3.1,0,0,1-1.79-2.9,2.58,2.58,0,0,1,.83-2,3.16,3.16,0,0,1,2.18-.75,2.51,2.51,0,0,1,2,.73,2.88,2.88,0,0,0-1,2.28,2.29,2.29,0,0,0,.6,1.66,2.42,2.42,0,0,0,1.81.62,3.61,3.61,0,0,0,3.3-1.91,10.38,10.38,0,0,0,1.12-5.22c0-1.12,0-2,0-2.48a4.84,4.84,0,0,1-1.86,2.51,5.58,5.58,0,0,1-3.2.87,5.28,5.28,0,0,1-4.38-2q-1.57-2-1.58-6.33a11,11,0,0,1,1.94-6.86q2-2.55,6.24-2.55a13.31,13.31,0,0,1,4,.59,9,9,0,0,1,3.12,1.62V56.52q0,4.75-2.37,6.88A9.31,9.31,0,0,1,65,65.53,9.55,9.55,0,0,1,60.54,64.58Zm8.07-10.3a10.08,10.08,0,0,0,1-4.63l0-7.13A3.23,3.23,0,0,0,68.44,42a4.78,4.78,0,0,0-1.42-.2,3,3,0,0,0-3,2.07,18.32,18.32,0,0,0-.81,6.27,18.16,18.16,0,0,0,.26,3.46,3.47,3.47,0,0,0,.82,1.83,2.12,2.12,0,0,0,1.57.57A3,3,0,0,0,68.61,54.28Z"/><path d="M102.67,58.25a3.67,3.67,0,0,1-2.48,1,2.69,2.69,0,0,1-1.81-.6,2,2,0,0,1-.7-1.64V48.44a15.11,15.11,0,0,0-.41-4,1.67,1.67,0,0,0-1.74-1.37,2.31,2.31,0,0,0-1.72.85,6.36,6.36,0,0,0-1.29,2.6A15.81,15.81,0,0,0,92,50.72L92,54a12.11,12.11,0,0,0,.6,4.22,3.41,3.41,0,0,1-2.41,1,2.44,2.44,0,0,1-1.71-.6A2.08,2.08,0,0,1,87.83,57l0-8.54a12.69,12.69,0,0,0-.48-4.1,1.83,1.83,0,0,0-1.86-1.29c-1,0-1.78.67-2.39,2A14.54,14.54,0,0,0,82.13,51c0,2.41,0,4,.1,4.87a8.06,8.06,0,0,0,.61,2.47,3.37,3.37,0,0,1-2.48.93,2.46,2.46,0,0,1-1.78-.67,2.31,2.31,0,0,1-.7-1.77l0-10.75c0-1.19-.33-1.78-1-1.78a1.32,1.32,0,0,0-.54.12.82.82,0,0,0-.4.38,2.49,2.49,0,0,1-.4-1.37,2.14,2.14,0,0,1,.72-1.69A2.77,2.77,0,0,1,78.21,41a3,3,0,0,1,2.38,1,5.12,5.12,0,0,1,1,3,6.32,6.32,0,0,1,1.94-3A5.14,5.14,0,0,1,86.89,41a4.72,4.72,0,0,1,3.17,1,5.4,5.4,0,0,1,1.62,3,6,6,0,0,1,2-2.9A5.08,5.08,0,0,1,96.94,41Q102,41,102,47.77V54A11.82,11.82,0,0,0,102.67,58.25Z"/><path d="M122.36,56a2,2,0,0,1-.84,1.64,3.54,3.54,0,0,1-2.24.67,3.13,3.13,0,0,1-2.52-1.06,5.76,5.76,0,0,1-1-3.43,8.15,8.15,0,0,1-2.61,3.27,6.42,6.42,0,0,1-3.88,1.22,4.75,4.75,0,0,1-3.19-1,3.64,3.64,0,0,1-1.2-2.91,4.39,4.39,0,0,1,1.64-3.52,11.27,11.27,0,0,1,4.15-2.11,19.7,19.7,0,0,1,4.79-.67v-.84a9.82,9.82,0,0,0-.67-4.19,2.36,2.36,0,0,0-2.31-1.34A2.24,2.24,0,0,0,110,44.23a2.6,2.6,0,0,0,1.21,2.47,2.39,2.39,0,0,1-1,.57,4.16,4.16,0,0,1-1.33.21,3.27,3.27,0,0,1-2.42-.88,2.92,2.92,0,0,1-.89-2.21,3.38,3.38,0,0,1,1.91-3.06,10.43,10.43,0,0,1,5.19-1.09q3.72,0,5.44,1.71t1.73,5.56v5.83c0,1.18.37,1.77,1.1,1.77a1.42,1.42,0,0,0,.51-.11,1.07,1.07,0,0,0,.43-.36A2.43,2.43,0,0,1,122.36,56Zm-9.15-1.31a6.32,6.32,0,0,0,1.68-2.19,7,7,0,0,0,.67-3,8.35,8.35,0,0,0-4,.73,3.94,3.94,0,0,0-1.49,1.27,3.27,3.27,0,0,0-.55,1.85,2.75,2.75,0,0,0,.42,1.54,1.41,1.41,0,0,0,1.26.63A3.15,3.15,0,0,0,113.21,54.71Z"/></svg>